<svg width="32" height="32" viewBox="0 0 32 32" fill="none" xmlns="http://www.w3.org/2000/svg">
<path fill-rule="evenodd" clip-rule="evenodd" d="M29.7918 7.65455C28.4808 7.36747 27.2982 8.80289 27.0574 9.60088C26.8166 10.3989 26.3939 11.8392 25.1631 11.81C23.9324 11.7808 24.1786 10.1848 24.1786 10.1848C25.9605 3.7619 22.4234 -0.456757 16.4356 0.0395566C10.4478 0.53587 9.80562 6.97334 9.80562 6.97334C8.57488 8.52067 7.30133 5.82014 6.397 5.44548C4.86125 4.81292 4.51343 5.09027 2.77434 6.01478C2.06155 6.40072 1.52003 7.00159 1.24393 7.71294C1.10481 8.27251 1.69878 8.28225 1.90212 7.99516C2.23337 7.55935 2.70984 7.23185 3.26129 7.06093C2.34626 7.62536 1.92887 8.23359 1.95028 8.62285C1.97168 9.01212 2.38371 9.15809 2.65662 8.75423C2.91939 8.30496 3.32372 7.93729 3.81779 7.69835C2.30344 8.90994 3.1168 9.90743 3.56629 9.33326C4.20841 8.51094 4.90941 8.20926 5.13416 8.41362C5.3589 8.61799 5.36425 8.99266 4.44922 9.33813C3.85526 9.56682 4.1121 9.92202 4.32079 9.96582C4.58124 9.99552 4.84573 9.96669 5.09108 9.88186C5.33643 9.79703 5.55516 9.65878 5.72812 9.47923C6.00637 11.0558 6.15086 10.4816 6.72342 12.209C7.29599 13.9363 3.87666 16.1016 1.90747 17.9701C-0.0617135 19.8386 -0.393483 22.9624 0.398473 23.595C1.19043 24.2275 1.61851 22.4856 2.18037 21.5611C2.74223 20.6365 3.68402 21.0404 3.577 21.454C3.41572 21.9081 3.21716 22.3505 2.98303 22.7775C2.44792 24.0475 1.42587 27.6141 3.51813 29.0301C5.61039 30.446 5.71743 26.8161 6.57359 25.8284C7.42976 24.8406 8.58559 25.5024 8.42505 26.5193C8.1631 27.9137 8.37983 29.3476 9.04578 30.6261C9.9287 32.4702 11.3521 32.6551 12.1173 29.9594C12.8825 27.2638 14.0544 27.3368 16.7299 25.5121C19.4054 23.6874 22.0167 19.3228 22.5411 18.9384C23.0655 18.554 25.5859 16.2719 25.5859 16.2719C28.652 13.1432 29.1657 10.866 29.0106 10.5205C28.8554 10.175 29.0106 9.84417 29.2995 9.84904C29.5885 9.8539 29.4975 10.6665 29.6634 11.0412C29.8293 11.4158 30.1343 11.2017 30.2788 10.8222C30.3468 10.4264 30.3231 10.022 30.2092 9.63494C30.4125 9.89283 30.6052 10.4816 30.8513 10.7395C30.8968 10.7706 30.9518 10.7884 31.0087 10.7902C31.0657 10.7921 31.1219 10.778 31.1697 10.7499C31.2176 10.7217 31.2548 10.6809 31.2763 10.6329C31.2979 10.585 31.3027 10.5321 31.2901 10.4816C31.1987 10.056 31.0401 9.6446 30.8192 9.26027C31.074 9.38507 31.2852 9.57215 31.4292 9.80038C31.6433 10.1653 31.8734 10.0242 31.8734 10.0242C32.4192 9.57655 31.1028 7.94164 29.7918 7.65455ZM7.59029 12.9048C7.53919 13.1201 7.46016 13.3292 7.35484 13.5276L7.15686 13.7903C7.15686 13.7903 6.93211 14.0093 7.1194 13.4643C7.1194 13.4643 7.34948 12.8123 7.39764 12.5447C7.42056 12.3295 7.42056 12.1128 7.39764 11.8975C7.39764 11.8975 7.39766 11.8002 7.51003 11.8975C7.59853 12.2268 7.62566 12.5673 7.59029 12.9048ZM8.45716 12.7053C8.45716 12.7053 8.3983 12.8464 8.29663 12.6566C8.39295 12.316 8.44111 12.3501 8.44111 12.3501C8.44111 12.3501 8.47321 12.2576 8.54278 12.3744C8.61234 12.4912 8.6605 12.2868 8.45716 12.7199V12.7053ZM22.4502 9.78578C22.3025 10.0674 22.0548 10.2954 21.747 10.4332C21.4392 10.5709 21.0893 10.6102 20.7539 10.5448C20.1706 10.3989 20.176 10.1215 20.176 10.1215L20.5826 10.2578C20.8927 10.3817 21.2404 10.4039 21.5665 10.3205C21.8925 10.237 22.1765 10.0532 22.3699 9.80038L22.4502 9.78578ZM19.6248 7.69835C19.7425 6.96848 20.0101 6.14129 20.8395 6.08776H20.9091C22.2094 6.12669 22.5144 8.3309 22.204 9.17756C21.9311 9.8831 20.9358 10.467 20.1332 9.83444C19.5071 9.34786 19.5231 8.34063 19.6248 7.70808V7.69835ZM15.7346 9.82957C15.4357 9.94745 15.1111 10.0017 14.7856 9.98822C14.4601 9.97472 14.1423 9.89384 13.8564 9.75172C13.6771 9.67643 13.5201 9.56349 13.3982 9.42222C13.2763 9.28095 13.1931 9.11538 13.1554 8.93913C13.1554 8.93913 13.1179 8.77856 13.2571 8.84181L13.3694 8.93427C13.4657 9.10457 13.2731 8.93427 13.6958 9.33326C14.0042 9.58856 14.3915 9.75123 14.8052 9.79912C15.2188 9.84701 15.6387 9.77779 16.0075 9.60088H16.0771C15.9761 9.69496 15.8608 9.77527 15.7346 9.83931V9.82957ZM16.1413 9.18729C14.9694 9.97068 13.4122 9.44518 13.5942 8.06815C13.7494 6.84683 14.6644 5.55252 15.9754 5.48927H16.061C16.314 5.49873 16.5591 5.572 16.7689 5.7009C16.9787 5.8298 17.1449 6.00924 17.2489 6.21914C17.7573 7.26042 17.0723 8.56933 16.1413 9.19702V9.18729ZM17.5486 11.4012C17.2115 11.2017 17.6235 10.3891 18.1265 10.394C18.6295 10.3989 18.1479 11.7467 17.5486 11.411V11.4012ZM23.0495 17.3521C22.12 18.0995 21.3507 18.997 20.7806 19.9991L20.6522 20.1889C20.5827 20.2813 20.5184 20.3787 20.4489 20.476C20.1171 20.9285 19.7907 21.3859 19.4322 21.8141L19.3412 21.8579C19.3412 21.8579 19.6141 21.4443 19.8067 21.1426C20.6897 19.7461 21.2783 18.1355 23.0174 17.065C23.1005 17.0514 23.1857 17.0514 23.2689 17.065C23.1886 17.4056 23.2047 17.2548 23.0495 17.3619V17.3521Z" fill="#23002C"/>
</svg>
